<mxfile host="Electron" modified="2024-03-14T05:28:49.808Z" agent="Mozilla/5.0 (X11; Linux x86_64) AppleWebKit/537.36 (KHTML, like Gecko) draw.io/23.1.5 Chrome/120.0.6099.109 Electron/28.1.0 Safari/537.36" etag="F8UXPl8rZ2stKW-R5P1T" version="23.1.5" type="device" pages="2">
  <diagram name="Page-1" id="3JFaAvJkK7yMQfj6cRWk">
    <mxGraphModel dx="1674" dy="843" grid="1" gridSize="10" guides="1" tooltips="1" connect="1" arrows="1" fold="1" page="1" pageScale="1" pageWidth="850" pageHeight="1100" math="0" shadow="0">
      <root>
        <mxCell id="0" />
        <mxCell id="1" parent="0" />
        <mxCell id="p1KDbPNaWxjHmvjJNPTf-1" value="Портал для автосервиса" style="rounded=0;whiteSpace=wrap;html=1;" vertex="1" parent="1">
          <mxGeometry x="308" y="330" width="235" height="110" as="geometry" />
        </mxCell>
        <mxCell id="p1KDbPNaWxjHmvjJNPTf-2" value="А0" style="text;html=1;align=center;verticalAlign=middle;whiteSpace=wrap;rounded=0;" vertex="1" parent="1">
          <mxGeometry x="483" y="410" width="60" height="30" as="geometry" />
        </mxCell>
        <mxCell id="p1KDbPNaWxjHmvjJNPTf-3" value="" style="endArrow=classic;html=1;rounded=0;entryX=0.004;entryY=0.091;entryDx=0;entryDy=0;entryPerimeter=0;" edge="1" parent="1" target="p1KDbPNaWxjHmvjJNPTf-1">
          <mxGeometry width="50" height="50" relative="1" as="geometry">
            <mxPoint x="140" y="340" as="sourcePoint" />
            <mxPoint x="190" y="350" as="targetPoint" />
          </mxGeometry>
        </mxCell>
        <mxCell id="p1KDbPNaWxjHmvjJNPTf-4" value="Запрос на авторизацию" style="text;html=1;align=center;verticalAlign=middle;resizable=0;points=[];autosize=1;strokeColor=none;fillColor=none;" vertex="1" parent="1">
          <mxGeometry x="130" y="310" width="160" height="30" as="geometry" />
        </mxCell>
        <mxCell id="p1KDbPNaWxjHmvjJNPTf-5" value="" style="endArrow=classic;html=1;rounded=0;entryX=0;entryY=0.25;entryDx=0;entryDy=0;" edge="1" parent="1" target="p1KDbPNaWxjHmvjJNPTf-1">
          <mxGeometry width="50" height="50" relative="1" as="geometry">
            <mxPoint x="140" y="358" as="sourcePoint" />
            <mxPoint x="110" y="390" as="targetPoint" />
          </mxGeometry>
        </mxCell>
        <mxCell id="p1KDbPNaWxjHmvjJNPTf-6" value="Запрос на поиск детали на складе" style="text;html=1;align=center;verticalAlign=middle;resizable=0;points=[];autosize=1;strokeColor=none;fillColor=none;" vertex="1" parent="1">
          <mxGeometry x="88" y="330" width="220" height="30" as="geometry" />
        </mxCell>
        <mxCell id="p1KDbPNaWxjHmvjJNPTf-7" value="" style="endArrow=classic;html=1;rounded=0;entryX=0;entryY=0.5;entryDx=0;entryDy=0;" edge="1" parent="1" target="p1KDbPNaWxjHmvjJNPTf-1">
          <mxGeometry width="50" height="50" relative="1" as="geometry">
            <mxPoint x="140" y="385" as="sourcePoint" />
            <mxPoint x="450" y="410" as="targetPoint" />
          </mxGeometry>
        </mxCell>
        <mxCell id="p1KDbPNaWxjHmvjJNPTf-8" value="Запрос на создание инвойса" style="text;html=1;align=center;verticalAlign=middle;resizable=0;points=[];autosize=1;strokeColor=none;fillColor=none;" vertex="1" parent="1">
          <mxGeometry x="120" y="358" width="180" height="30" as="geometry" />
        </mxCell>
        <mxCell id="p1KDbPNaWxjHmvjJNPTf-9" value="" style="endArrow=classic;html=1;rounded=0;entryX=0;entryY=0.75;entryDx=0;entryDy=0;" edge="1" parent="1" target="p1KDbPNaWxjHmvjJNPTf-1">
          <mxGeometry width="50" height="50" relative="1" as="geometry">
            <mxPoint x="140" y="413" as="sourcePoint" />
            <mxPoint x="450" y="410" as="targetPoint" />
          </mxGeometry>
        </mxCell>
        <mxCell id="p1KDbPNaWxjHmvjJNPTf-10" value="Запрос на закрытие инвойса" style="text;html=1;align=center;verticalAlign=middle;resizable=0;points=[];autosize=1;strokeColor=none;fillColor=none;" vertex="1" parent="1">
          <mxGeometry x="120" y="380" width="180" height="30" as="geometry" />
        </mxCell>
        <mxCell id="p1KDbPNaWxjHmvjJNPTf-11" value="" style="endArrow=classic;html=1;rounded=0;entryX=0.25;entryY=1;entryDx=0;entryDy=0;" edge="1" parent="1" target="p1KDbPNaWxjHmvjJNPTf-1">
          <mxGeometry width="50" height="50" relative="1" as="geometry">
            <mxPoint x="367" y="590" as="sourcePoint" />
            <mxPoint x="380" y="530" as="targetPoint" />
          </mxGeometry>
        </mxCell>
        <mxCell id="p1KDbPNaWxjHmvjJNPTf-12" value="Сервисы" style="text;html=1;align=center;verticalAlign=middle;resizable=0;points=[];autosize=1;strokeColor=none;fillColor=none;" vertex="1" parent="1">
          <mxGeometry x="290" y="498" width="70" height="30" as="geometry" />
        </mxCell>
        <mxCell id="p1KDbPNaWxjHmvjJNPTf-13" value="" style="endArrow=classic;html=1;rounded=0;entryX=0.75;entryY=1;entryDx=0;entryDy=0;" edge="1" parent="1" target="p1KDbPNaWxjHmvjJNPTf-1">
          <mxGeometry width="50" height="50" relative="1" as="geometry">
            <mxPoint x="484" y="590" as="sourcePoint" />
            <mxPoint x="490" y="550" as="targetPoint" />
          </mxGeometry>
        </mxCell>
        <mxCell id="p1KDbPNaWxjHmvjJNPTf-14" value="СУБД" style="text;html=1;align=center;verticalAlign=middle;resizable=0;points=[];autosize=1;strokeColor=none;fillColor=none;" vertex="1" parent="1">
          <mxGeometry x="490" y="498" width="60" height="30" as="geometry" />
        </mxCell>
        <mxCell id="p1KDbPNaWxjHmvjJNPTf-15" value="" style="endArrow=classic;html=1;rounded=0;exitX=1.009;exitY=0.155;exitDx=0;exitDy=0;exitPerimeter=0;" edge="1" parent="1" source="p1KDbPNaWxjHmvjJNPTf-1">
          <mxGeometry width="50" height="50" relative="1" as="geometry">
            <mxPoint x="580" y="350" as="sourcePoint" />
            <mxPoint x="700" y="347" as="targetPoint" />
          </mxGeometry>
        </mxCell>
        <mxCell id="p1KDbPNaWxjHmvjJNPTf-16" value="Результат авторизации" style="text;html=1;align=center;verticalAlign=middle;resizable=0;points=[];autosize=1;strokeColor=none;fillColor=none;" vertex="1" parent="1">
          <mxGeometry x="535" y="320" width="150" height="30" as="geometry" />
        </mxCell>
        <mxCell id="p1KDbPNaWxjHmvjJNPTf-17" value="" style="endArrow=classic;html=1;rounded=0;" edge="1" parent="1">
          <mxGeometry width="50" height="50" relative="1" as="geometry">
            <mxPoint x="543" y="360" as="sourcePoint" />
            <mxPoint x="703" y="360" as="targetPoint" />
          </mxGeometry>
        </mxCell>
        <mxCell id="p1KDbPNaWxjHmvjJNPTf-18" value="Страница с информациях о деталях на складе" style="text;html=1;align=center;verticalAlign=middle;resizable=0;points=[];autosize=1;strokeColor=none;fillColor=none;" vertex="1" parent="1">
          <mxGeometry x="540" y="340" width="280" height="30" as="geometry" />
        </mxCell>
        <mxCell id="p1KDbPNaWxjHmvjJNPTf-19" value="" style="endArrow=classic;html=1;rounded=0;exitX=1;exitY=0.5;exitDx=0;exitDy=0;" edge="1" parent="1" source="p1KDbPNaWxjHmvjJNPTf-1">
          <mxGeometry width="50" height="50" relative="1" as="geometry">
            <mxPoint x="400" y="460" as="sourcePoint" />
            <mxPoint x="700" y="385" as="targetPoint" />
          </mxGeometry>
        </mxCell>
        <mxCell id="p1KDbPNaWxjHmvjJNPTf-20" value="Страница открытыми инвойсами" style="text;html=1;align=center;verticalAlign=middle;resizable=0;points=[];autosize=1;strokeColor=none;fillColor=none;" vertex="1" parent="1">
          <mxGeometry x="535" y="358" width="210" height="30" as="geometry" />
        </mxCell>
        <mxCell id="p1KDbPNaWxjHmvjJNPTf-21" value="" style="endArrow=classic;html=1;rounded=0;exitX=1;exitY=0;exitDx=0;exitDy=0;" edge="1" parent="1" source="p1KDbPNaWxjHmvjJNPTf-2">
          <mxGeometry width="50" height="50" relative="1" as="geometry">
            <mxPoint x="400" y="460" as="sourcePoint" />
            <mxPoint x="700" y="410" as="targetPoint" />
          </mxGeometry>
        </mxCell>
        <mxCell id="p1KDbPNaWxjHmvjJNPTf-22" value="Страница с закрытыми инвойсами" style="text;html=1;align=center;verticalAlign=middle;resizable=0;points=[];autosize=1;strokeColor=none;fillColor=none;" vertex="1" parent="1">
          <mxGeometry x="535" y="380" width="220" height="30" as="geometry" />
        </mxCell>
      </root>
    </mxGraphModel>
  </diagram>
  <diagram id="u2VcFJTPmU5ytmJvZbkZ" name="Page-2">
    <mxGraphModel dx="1674" dy="843" grid="1" gridSize="10" guides="1" tooltips="1" connect="1" arrows="1" fold="1" page="1" pageScale="1" pageWidth="850" pageHeight="1100" math="0" shadow="0">
      <root>
        <mxCell id="0" />
        <mxCell id="1" parent="0" />
        <mxCell id="RLSZBdcmlXtfoG1MvYfw-1" value="Авторизация" style="rounded=0;whiteSpace=wrap;html=1;" vertex="1" parent="1">
          <mxGeometry x="120" y="200" width="120" height="60" as="geometry" />
        </mxCell>
        <mxCell id="RLSZBdcmlXtfoG1MvYfw-2" value="" style="endArrow=classic;html=1;rounded=0;entryX=0;entryY=0.5;entryDx=0;entryDy=0;" edge="1" parent="1" target="RLSZBdcmlXtfoG1MvYfw-1">
          <mxGeometry width="50" height="50" relative="1" as="geometry">
            <mxPoint x="30" y="230" as="sourcePoint" />
            <mxPoint x="70" y="220" as="targetPoint" />
          </mxGeometry>
        </mxCell>
        <mxCell id="RLSZBdcmlXtfoG1MvYfw-3" value="Запрс на создание&lt;br&gt;инвойса" style="text;html=1;align=center;verticalAlign=middle;resizable=0;points=[];autosize=1;strokeColor=none;fillColor=none;" vertex="1" parent="1">
          <mxGeometry y="190" width="130" height="40" as="geometry" />
        </mxCell>
        <mxCell id="RLSZBdcmlXtfoG1MvYfw-4" value="" style="endArrow=classic;html=1;rounded=0;entryX=0.5;entryY=1;entryDx=0;entryDy=0;" edge="1" parent="1" target="RLSZBdcmlXtfoG1MvYfw-1">
          <mxGeometry width="50" height="50" relative="1" as="geometry">
            <mxPoint x="180" y="340" as="sourcePoint" />
            <mxPoint x="210" y="340" as="targetPoint" />
          </mxGeometry>
        </mxCell>
        <mxCell id="RLSZBdcmlXtfoG1MvYfw-5" value="Сервис&lt;br&gt;авторизации" style="text;html=1;align=center;verticalAlign=middle;resizable=0;points=[];autosize=1;strokeColor=none;fillColor=none;" vertex="1" parent="1">
          <mxGeometry x="180" y="290" width="90" height="40" as="geometry" />
        </mxCell>
        <mxCell id="RLSZBdcmlXtfoG1MvYfw-6" value="А1" style="text;html=1;align=center;verticalAlign=middle;whiteSpace=wrap;rounded=0;" vertex="1" parent="1">
          <mxGeometry x="200" y="240" width="60" height="30" as="geometry" />
        </mxCell>
        <mxCell id="RLSZBdcmlXtfoG1MvYfw-7" value="Поиск деталей" style="rounded=0;whiteSpace=wrap;html=1;" vertex="1" parent="1">
          <mxGeometry x="430" y="390" width="120" height="60" as="geometry" />
        </mxCell>
        <mxCell id="RLSZBdcmlXtfoG1MvYfw-8" value="А3" style="text;html=1;align=center;verticalAlign=middle;whiteSpace=wrap;rounded=0;" vertex="1" parent="1">
          <mxGeometry x="510" y="430" width="60" height="30" as="geometry" />
        </mxCell>
        <mxCell id="RLSZBdcmlXtfoG1MvYfw-9" value="" style="endArrow=classic;html=1;rounded=0;exitX=1;exitY=0.5;exitDx=0;exitDy=0;entryX=0.5;entryY=0;entryDx=0;entryDy=0;edgeStyle=orthogonalEdgeStyle;" edge="1" parent="1" source="RLSZBdcmlXtfoG1MvYfw-1" target="RLSZBdcmlXtfoG1MvYfw-14">
          <mxGeometry width="50" height="50" relative="1" as="geometry">
            <mxPoint x="360" y="250" as="sourcePoint" />
            <mxPoint x="320" y="230" as="targetPoint" />
          </mxGeometry>
        </mxCell>
        <mxCell id="RLSZBdcmlXtfoG1MvYfw-14" value="Определение автосервиса" style="rounded=0;whiteSpace=wrap;html=1;" vertex="1" parent="1">
          <mxGeometry x="290" y="280" width="120" height="60" as="geometry" />
        </mxCell>
        <mxCell id="RLSZBdcmlXtfoG1MvYfw-15" value="А2" style="text;html=1;align=center;verticalAlign=middle;whiteSpace=wrap;rounded=0;" vertex="1" parent="1">
          <mxGeometry x="370" y="320" width="60" height="30" as="geometry" />
        </mxCell>
        <mxCell id="RLSZBdcmlXtfoG1MvYfw-16" value="Авторизованный &lt;br&gt;пользователь" style="text;html=1;align=center;verticalAlign=middle;resizable=0;points=[];autosize=1;strokeColor=none;fillColor=none;" vertex="1" parent="1">
          <mxGeometry x="240" y="193" width="120" height="40" as="geometry" />
        </mxCell>
        <mxCell id="RLSZBdcmlXtfoG1MvYfw-17" value="" style="endArrow=classic;html=1;rounded=0;entryX=0.5;entryY=1;entryDx=0;entryDy=0;" edge="1" parent="1" target="RLSZBdcmlXtfoG1MvYfw-14">
          <mxGeometry width="50" height="50" relative="1" as="geometry">
            <mxPoint x="350" y="410" as="sourcePoint" />
            <mxPoint x="349.5" y="350" as="targetPoint" />
          </mxGeometry>
        </mxCell>
        <mxCell id="RLSZBdcmlXtfoG1MvYfw-18" value="Сервис&lt;br&gt;автосервисов" style="text;html=1;align=center;verticalAlign=middle;resizable=0;points=[];autosize=1;strokeColor=none;fillColor=none;" vertex="1" parent="1">
          <mxGeometry x="260" y="360" width="100" height="40" as="geometry" />
        </mxCell>
        <mxCell id="RLSZBdcmlXtfoG1MvYfw-19" value="" style="endArrow=classic;html=1;rounded=0;entryX=0;entryY=0.5;entryDx=0;entryDy=0;" edge="1" parent="1" target="RLSZBdcmlXtfoG1MvYfw-7">
          <mxGeometry width="50" height="50" relative="1" as="geometry">
            <mxPoint x="30" y="420" as="sourcePoint" />
            <mxPoint x="520" y="310" as="targetPoint" />
          </mxGeometry>
        </mxCell>
        <mxCell id="RLSZBdcmlXtfoG1MvYfw-20" value="Список деталей&lt;br&gt;в инвойсе" style="text;html=1;align=center;verticalAlign=middle;resizable=0;points=[];autosize=1;strokeColor=none;fillColor=none;" vertex="1" parent="1">
          <mxGeometry x="15" y="383" width="110" height="40" as="geometry" />
        </mxCell>
        <mxCell id="RLSZBdcmlXtfoG1MvYfw-21" value="" style="endArrow=classic;html=1;rounded=0;entryX=0.5;entryY=1;entryDx=0;entryDy=0;" edge="1" parent="1" target="RLSZBdcmlXtfoG1MvYfw-7">
          <mxGeometry width="50" height="50" relative="1" as="geometry">
            <mxPoint x="490" y="520" as="sourcePoint" />
            <mxPoint x="550" y="560" as="targetPoint" />
          </mxGeometry>
        </mxCell>
        <mxCell id="RLSZBdcmlXtfoG1MvYfw-22" value="Сервис&lt;br&gt;запчастей" style="text;html=1;align=center;verticalAlign=middle;resizable=0;points=[];autosize=1;strokeColor=none;fillColor=none;" vertex="1" parent="1">
          <mxGeometry x="410" y="463" width="80" height="40" as="geometry" />
        </mxCell>
        <mxCell id="RLSZBdcmlXtfoG1MvYfw-23" value="" style="endArrow=classic;html=1;rounded=0;exitX=1;exitY=0.5;exitDx=0;exitDy=0;entryX=0.5;entryY=0;entryDx=0;entryDy=0;edgeStyle=orthogonalEdgeStyle;" edge="1" parent="1" source="RLSZBdcmlXtfoG1MvYfw-14" target="RLSZBdcmlXtfoG1MvYfw-7">
          <mxGeometry width="50" height="50" relative="1" as="geometry">
            <mxPoint x="540" y="340" as="sourcePoint" />
            <mxPoint x="590" y="290" as="targetPoint" />
          </mxGeometry>
        </mxCell>
        <mxCell id="RLSZBdcmlXtfoG1MvYfw-24" value="Идентификатор&lt;br&gt;автосервиса" style="text;html=1;align=center;verticalAlign=middle;resizable=0;points=[];autosize=1;strokeColor=none;fillColor=none;" vertex="1" parent="1">
          <mxGeometry x="400" y="270" width="110" height="40" as="geometry" />
        </mxCell>
        <mxCell id="RLSZBdcmlXtfoG1MvYfw-26" value="Создание инвойса" style="rounded=0;whiteSpace=wrap;html=1;" vertex="1" parent="1">
          <mxGeometry x="570" y="510" width="120" height="60" as="geometry" />
        </mxCell>
        <mxCell id="RLSZBdcmlXtfoG1MvYfw-27" value="А4" style="text;html=1;align=center;verticalAlign=middle;whiteSpace=wrap;rounded=0;" vertex="1" parent="1">
          <mxGeometry x="650" y="550" width="60" height="30" as="geometry" />
        </mxCell>
        <mxCell id="RLSZBdcmlXtfoG1MvYfw-28" value="" style="endArrow=classic;html=1;rounded=0;exitX=1;exitY=0.5;exitDx=0;exitDy=0;entryX=0.5;entryY=0;entryDx=0;entryDy=0;edgeStyle=orthogonalEdgeStyle;" edge="1" parent="1" source="RLSZBdcmlXtfoG1MvYfw-7" target="RLSZBdcmlXtfoG1MvYfw-26">
          <mxGeometry width="50" height="50" relative="1" as="geometry">
            <mxPoint x="400" y="310" as="sourcePoint" />
            <mxPoint x="450" y="260" as="targetPoint" />
          </mxGeometry>
        </mxCell>
        <mxCell id="RLSZBdcmlXtfoG1MvYfw-29" value="Список &lt;br&gt;деталей" style="text;html=1;align=center;verticalAlign=middle;resizable=0;points=[];autosize=1;strokeColor=none;fillColor=none;" vertex="1" parent="1">
          <mxGeometry x="560" y="383" width="70" height="40" as="geometry" />
        </mxCell>
        <mxCell id="RLSZBdcmlXtfoG1MvYfw-30" value="" style="endArrow=classic;html=1;rounded=0;entryX=0.5;entryY=1;entryDx=0;entryDy=0;" edge="1" parent="1" target="RLSZBdcmlXtfoG1MvYfw-26">
          <mxGeometry width="50" height="50" relative="1" as="geometry">
            <mxPoint x="630" y="650" as="sourcePoint" />
            <mxPoint x="450" y="260" as="targetPoint" />
          </mxGeometry>
        </mxCell>
        <mxCell id="RLSZBdcmlXtfoG1MvYfw-31" value="Сервис&lt;br&gt;склада" style="text;html=1;align=center;verticalAlign=middle;resizable=0;points=[];autosize=1;strokeColor=none;fillColor=none;" vertex="1" parent="1">
          <mxGeometry x="565" y="600" width="60" height="40" as="geometry" />
        </mxCell>
        <mxCell id="RLSZBdcmlXtfoG1MvYfw-33" value="Генерация страницы" style="rounded=0;whiteSpace=wrap;html=1;" vertex="1" parent="1">
          <mxGeometry x="700" y="620" width="120" height="60" as="geometry" />
        </mxCell>
        <mxCell id="RLSZBdcmlXtfoG1MvYfw-34" value="А5" style="text;html=1;align=center;verticalAlign=middle;whiteSpace=wrap;rounded=0;" vertex="1" parent="1">
          <mxGeometry x="780" y="660" width="60" height="30" as="geometry" />
        </mxCell>
        <mxCell id="RLSZBdcmlXtfoG1MvYfw-35" value="" style="endArrow=classic;html=1;rounded=0;exitX=1;exitY=0.5;exitDx=0;exitDy=0;entryX=0.5;entryY=0;entryDx=0;entryDy=0;edgeStyle=orthogonalEdgeStyle;" edge="1" parent="1" source="RLSZBdcmlXtfoG1MvYfw-26" target="RLSZBdcmlXtfoG1MvYfw-33">
          <mxGeometry width="50" height="50" relative="1" as="geometry">
            <mxPoint x="820" y="550" as="sourcePoint" />
            <mxPoint x="870" y="500" as="targetPoint" />
          </mxGeometry>
        </mxCell>
        <mxCell id="RLSZBdcmlXtfoG1MvYfw-36" value="Список открытых&lt;br&gt;инвойсов" style="text;html=1;align=center;verticalAlign=middle;resizable=0;points=[];autosize=1;strokeColor=none;fillColor=none;" vertex="1" parent="1">
          <mxGeometry x="680" y="503" width="120" height="40" as="geometry" />
        </mxCell>
        <mxCell id="RLSZBdcmlXtfoG1MvYfw-37" value="" style="endArrow=classic;html=1;rounded=0;exitX=1;exitY=0.5;exitDx=0;exitDy=0;" edge="1" parent="1" source="RLSZBdcmlXtfoG1MvYfw-33">
          <mxGeometry width="50" height="50" relative="1" as="geometry">
            <mxPoint x="850" y="670" as="sourcePoint" />
            <mxPoint x="890" y="650" as="targetPoint" />
          </mxGeometry>
        </mxCell>
        <mxCell id="RLSZBdcmlXtfoG1MvYfw-38" value="Страница с&lt;br&gt;списком&lt;br&gt;открытых&lt;br&gt;инвойсов" style="text;html=1;align=center;verticalAlign=middle;resizable=0;points=[];autosize=1;strokeColor=none;fillColor=none;" vertex="1" parent="1">
          <mxGeometry x="810" y="580" width="90" height="70" as="geometry" />
        </mxCell>
      </root>
    </mxGraphModel>
  </diagram>
</mxfile>
